<svg xmlns="http://www.w3.org/2000/svg" width="960" height="480"><rect x="0" y="0" width="960" height="480" fill="white"/><text font-family="Sans,Arial" font-size="30" font-stretch="ultra-condensed" font-weight="bold" fill="black" x="5" y="45">BRCA1 | breast cancer type 1 susceptibility protein</text><line stroke="red" stroke-width="3" x1="93.98819108964037" y1="360" x2="93.98819108964037" y2="315"/><text font-family="monospace" font-size="20" x="99.98819108964037" y="330"> p.E149A</text><line stroke="grey" stroke-width="5" x1="50" y1="200" x2="600.2952227589909" y2="200"/><line stroke="grey" stroke-width="5" x1="50" y1="360" x2="600.2952227589909" y2="360"/><text stroke-width="1" font-family="monospace" font-size="20" fill="black" x="5" y="205">0|1</text><text stroke-width="1" font-family="monospace" font-size="20" fill="black" x="5" y="365">1|0</text><text stroke-width="1" font-family="monospace" font-size="20" fill="black" x="610.2952227589909" y="205">1863 AA</text><text stroke-width="1" font-family="monospace" font-size="20" fill="black" x="610.2952227589909" y="365">1863 AA</text><rect x="52.06655931293612" y="185" width="27.160493827160494" height="30" fill="#00ff00"/><text font-family="monospace" font-size="3.1339031339031345" fill="black" x="53.424584004294154" y="205">RING-HC_BRCA1</text><rect x="151.85185185185185" y="185" width="48.121309715512616" height="30" fill="#999900"/><text font-family="monospace" font-size="7.218196457326893" fill="black" x="154.25791733762748" y="205">BRCT_assoc</text><rect x="537.1175523349436" y="185" width="28.341384863123995" height="30" fill="#ff0000"/><text font-family="monospace" font-size="2.8341384863123995" fill="black" x="538.5346215780999" y="205">BRCT_BRCA1_rpt1</text><rect x="569.0016103059581" y="185" width="28.63660762211487" height="30" fill="#ff0000"/><text font-family="monospace" font-size="2.863660762211487" fill="black" x="570.4334406870638" y="205">BRCT_BRCA1_rpt2</text><rect x="52.06655931293612" y="345" width="27.160493827160494" height="30" fill="#00ff00"/><text font-family="monospace" font-size="3.1339031339031345" fill="black" x="53.424584004294154" y="365">RING-HC_BRCA1</text><rect x="151.85185185185185" y="345" width="48.121309715512616" height="30" fill="#999900"/><text font-family="monospace" font-size="7.218196457326893" fill="black" x="154.25791733762748" y="365">BRCT_assoc</text><rect x="537.1175523349436" y="345" width="28.341384863123995" height="30" fill="#ff0000"/><text font-family="monospace" font-size="2.8341384863123995" fill="black" x="538.5346215780999" y="365">BRCT_BRCA1_rpt1</text><rect x="569.0016103059581" y="345" width="28.63660762211487" height="30" fill="#ff0000"/><text font-family="monospace" font-size="2.863660762211487" fill="black" x="570.4334406870638" y="365">BRCT_BRCA1_rpt2</text></svg>