<svg xmlns="http://www.w3.org/2000/svg" width="720" height="480"><rect x="0" y="0" width="720" height="480" fill="white"/><text font-family="Sans,Arial" font-size="30" font-stretch="ultra-condensed" font-weight="bold" fill="black" x="5" y="45">PRDM9 | Histone-lysine N-methyltransferase PRDM9</text><line stroke="grey" stroke-width="5" x1="50" y1="200" x2="600.5901287553648" y2="200"/><line stroke="grey" stroke-width="5" x1="50" y1="360" x2="600.5901287553648" y2="360"/><text stroke-width="1" font-family="monospace" font-size="20" fill="black" x="5" y="205">0|1</text><text stroke-width="1" font-family="monospace" font-size="20" fill="black" x="5" y="365">1|0</text><text stroke-width="1" font-family="monospace" font-size="20" fill="black" x="610.5901287553648" y="205">932 AA</text><text stroke-width="1" font-family="monospace" font-size="20" fill="black" x="610.5901287553648" y="365">932 AA</text><rect x="65.93347639484979" y="185" width="18.293991416309012" height="30" fill="#7bd5ab"/><text font-family="monospace" font-size="5.488197424892704" fill="black" x="66.84817596566523" y="205">KRAB </text><rect x="150.91201716738198" y="185" width="17.703862660944203" height="30" fill="#a59cbf"/><text font-family="monospace" font-size="5.3111587982832615" fill="black" x="151.79721030042919" y="205">SSXRD</text><rect x="191.63090128755363" y="185" width="75.53648068669528" height="30" fill="#f5c8f9"/><text font-family="monospace" font-size="20" fill="black" x="193.39914163090128" y="205">SET Sf</text><rect x="361.587982832618" y="185" width="123.33690987124464" height="30" fill="#dde1ad"/><text font-family="monospace" font-size="9.737124463519315" fill="black" x="367.75482832618025" y="205">COG5048 Superfamily</text><rect x="485.51502145922746" y="185" width="22.42489270386266" height="30" fill="#bc7b81"/><text font-family="monospace" font-size="11.212446351931332" fill="black" x="486.63626609442065" y="205">INS</text><rect x="508.53004291845497" y="185" width="91.46995708154506" height="30" fill="#dde1ad"/><text font-family="monospace" font-size="7.221312401174611" fill="black" x="513.1035407725321" y="205">COG5048 Superfamily</text><rect x="65.93347639484979" y="345" width="18.293991416309012" height="30" fill="#7bd5ab"/><text font-family="monospace" font-size="5.488197424892704" fill="black" x="66.84817596566523" y="365">KRAB </text><rect x="150.91201716738198" y="345" width="17.703862660944203" height="30" fill="#a59cbf"/><text font-family="monospace" font-size="5.3111587982832615" fill="black" x="151.79721030042919" y="365">SSXRD</text><rect x="191.63090128755363" y="345" width="75.53648068669528" height="30" fill="#f5c8f9"/><text font-family="monospace" font-size="20" fill="black" x="193.39914163090128" y="365">SET Sf</text><rect x="361.587982832618" y="345" width="168.77682403433477" height="30" fill="#dde1ad"/><text font-family="monospace" font-size="13.324486107973797" fill="black" x="370.0268240343347" y="365">COG5048 Superfamily</text><rect x="530.9549356223176" y="345" width="22.42489270386266" height="30" fill="#bc7b81"/><text font-family="monospace" font-size="11.212446351931332" fill="black" x="532.0761802575107" y="365">INS</text><rect x="553.9699570815451" y="345" width="46.03004291845493" height="30" fill="#dde1ad"/><text font-family="monospace" font-size="3.633950756720126" fill="black" x="556.2714592274679" y="365">COG5048 Superfamily</text><line stroke="red" stroke-width="3" x1="496.137339055794" y1="185" x2="496.137339055794" y2="155"/><text font-family="monospace" font-size="20" x="502.137339055794" y="170">38 AA Insertion</text><line stroke="red" stroke-width="3" x1="540.9871244635194" y1="345" x2="540.9871244635194" y2="315"/><text font-family="monospace" font-size="20" x="546.9871244635194" y="330">38 AA Insertion</text></svg>