<svg xmlns="http://www.w3.org/2000/svg" width="720" height="480"><rect x="0" y="0" width="720" height="480" fill="white"/><text font-family="Sans,Arial" font-size="30" font-stretch="ultra-condensed" font-weight="bold" fill="black" x="5" y="45">CRT | Courtney protein</text><line stroke="grey" stroke-width="5" x1="50" y1="200" x2="601.1" y2="200"/><line stroke="grey" stroke-width="5" x1="50" y1="360" x2="601.1" y2="360"/><text stroke-width="1" font-family="monospace" font-size="20" fill="black" x="5" y="205">0|1</text><text stroke-width="1" font-family="monospace" font-size="20" fill="black" x="5" y="365">1|0</text><text stroke-width="1" font-family="monospace" font-size="20" fill="black" x="611.1" y="205">500 AA</text><text stroke-width="1" font-family="monospace" font-size="20" fill="black" x="611.1" y="365">500 AA</text><rect x="51.1" y="185" width="23.1" height="30" fill="#fc4f5d"/><text font-family="monospace" font-size="17.325000000000003" fill="black" x="52.254999999999995" y="205">SP</text><rect x="105.0" y="185" width="110.0" height="30" fill="#2f6e54"/><text font-family="monospace" font-size="20" fill="black" x="118.0" y="205">Domain1</text><rect x="270.0" y="185" width="275.0" height="30" fill="#ed333b"/><text font-family="monospace" font-size="20" fill="black" x="365.5" y="205">Domain2</text><rect x="51.1" y="345" width="23.1" height="30" fill="#fc4f5d"/><text font-family="monospace" font-size="17.325000000000003" fill="black" x="52.254999999999995" y="365">SP</text><rect x="105.0" y="345" width="110.0" height="30" fill="#2f6e54"/><text font-family="monospace" font-size="20" fill="black" x="118.0" y="365">Domain1</text><rect x="270.0" y="345" width="275.0" height="30" fill="#ed333b"/><text font-family="monospace" font-size="20" fill="black" x="365.5" y="365">Domain2</text><line stroke="red" stroke-width="3" x1="325.0" y1="185" x2="325.0" y2="155"/><text font-family="monospace" font-size="20" x="331.0" y="170">Gly250Try</text><line stroke="red" stroke-width="3" x1="209.5" y1="345" x2="209.5" y2="315"/><text font-family="monospace" font-size="20" x="215.5" y="330">Thr145Pro</text></svg>